<?xml version="1.0" encoding="UTF-8"?>
<svg version="1.1" xmlns="http://www.w3.org/2000/svg" width="32" height="32">
<path d="M0 0 C4.90025583 2.08539784 7.63183467 5.27053359 10 10 C10.91469792 15.59490229 11.07496122 21.23570406 7.8125 26.0625 C4.97701587 29.60010401 1.62054595 31.73506061 -2.8671875 32.46875 C-8.76234082 32.52999835 -12.91027142 32.33909543 -17.59765625 28.58203125 C-22.03474417 23.57640282 -22.58635791 19.46828479 -22.41796875 12.94921875 C-21.81040874 8.66222989 -20.22620183 5.85976903 -17 3 C-11.57528041 -0.88266732 -6.4705304 -0.91701557 0 0 Z " fill="#CCAF78" transform="translate(22,0)"/>
<path d="M0 0 C2.09749995 2.35968744 2.96905704 3.54616994 3.1875 6.75 C3.125625 7.4925 3.06375 8.235 3 9 C-1.11648845 9.89005156 -4.78025684 10 -9 10 C-9 7.69 -9 5.38 -9 3 C-8.67 3.99 -8.34 4.98 -8 6 C-7.34 6 -6.68 6 -6 6 C-5.67 5.01 -5.34 4.02 -5 3 C-4.67 3.33 -4.34 3.66 -4 4 C-3.67 3.34 -3.34 2.68 -3 2 C-3.66 1.67 -4.32 1.34 -5 1 C-3.35 0.67 -1.7 0.34 0 0 Z " fill="#5F5137" transform="translate(16,10)"/>
<path d="M0 0 C3.465 1.485 3.465 1.485 7 3 C7 3.66 7 4.32 7 5 C8.65 5 10.3 5 12 5 C12 5.66 12 6.32 12 7 C12.66 7.33 13.32 7.66 14 8 C12.04174127 8.02694851 10.08337774 8.04637218 8.125 8.0625 C7.03445312 8.07410156 5.94390625 8.08570313 4.8203125 8.09765625 C2 8 2 8 0 7 C0 4.69 0 2.38 0 0 Z " fill="#AB9366" transform="translate(8,24)"/>
<path d="M0 0 C0 0.66 0 1.32 0 2 C-0.72445313 2.02578125 -1.44890625 2.0515625 -2.1953125 2.078125 C-8.34149534 2.43870106 -12.29969803 2.91815882 -17 7 C-17.33 7.66 -17.66 8.32 -18 9 C-18.66 9 -19.32 9 -20 9 C-19.09447999 5.74012795 -18.06692589 4.06516468 -15.625 1.6875 C-10.42935413 -0.73116273 -5.63922179 -0.32849836 0 0 Z " fill="#9C866D" transform="translate(22,0)"/>
<path d="M0 0 C2.475 0.495 2.475 0.495 5 1 C5 2.65 5 4.3 5 6 C3.35 6.33 1.7 6.66 0 7 C0 4.69 0 2.38 0 0 Z " fill="#826F4B" transform="translate(20,13)"/>
<path d="M0 0 C2.64 0 5.28 0 8 0 C8 0.66 8 1.32 8 2 C8.66 2.33 9.32 2.66 10 3 C6.04 3 2.08 3 -2 3 C-1.34 2.67 -0.68 2.34 0 2 C0 1.34 0 0.68 0 0 Z " fill="#B59C76" transform="translate(12,29)"/>
<path d="M0 0 C0.99 1.32 1.98 2.64 3 4 C1.02 4.99 1.02 4.99 -1 6 C-2.32 4.35 -3.64 2.7 -5 1 C-3.35 0.67 -1.7 0.34 0 0 Z " fill="#68593C" transform="translate(16,10)"/>
<path d="M0 0 C4.67692308 1.47692308 4.67692308 1.47692308 6.3125 4.125 C6.539375 4.74375 6.76625 5.3625 7 6 C6.01 6.495 6.01 6.495 5 7 C3.29115995 5.37660195 1.62553283 3.70680947 0 2 C0 1.34 0 0.68 0 0 Z " fill="#99896C" transform="translate(23,2)"/>
</svg>
