<?xml version="1.0" encoding="UTF-8"?>
<svg version="1.1" xmlns="http://www.w3.org/2000/svg" width="32" height="32">
<path d="M0 0 C5.94 0 11.88 0 18 0 C23.34875215 9.13745158 24.67640407 13.52247456 23 24 C21.68 24 20.36 24 19 24 C19 24.99 19 25.98 19 27 C14.00773828 29.49613086 6.32174534 29.70133561 1 28 C-2.96427893 24.19213479 -5.22987913 20.25326193 -7 15 C-6.71875 12.8125 -6.71875 12.8125 -6 11 C-5.6503582 8.66905466 -5.31445513 6.33595238 -5 4 C-4.360625 3.896875 -3.72125 3.79375 -3.0625 3.6875 C-2.381875 3.460625 -1.70125 3.23375 -1 3 C-0.67 2.01 -0.34 1.02 0 0 Z M1.08203125 5.51953125 C0.72496094 6.33808594 0.36789063 7.15664062 0 8 C1.0725 7.7525 2.145 7.505 3.25 7.25 C4.4875 7.1675 5.725 7.085 7 7 C9.0625 8.8125 9.0625 8.8125 11 11 C12.010625 11.33 13.02125 11.66 14.0625 12 C17.33126327 13.11277048 18.25682293 14.09470489 20 17 C20.88855164 14.00446363 21.19605797 12.48360967 20.00390625 9.54296875 C19.52824219 8.76566406 19.05257813 7.98835937 18.5625 7.1875 C18.08941406 6.39730469 17.61632812 5.60710938 17.12890625 4.79296875 C16.75636719 4.20128906 16.38382813 3.60960937 16 3 C13.89758397 2.86503749 11.7927039 2.76802693 9.6875 2.6875 C7.92986328 2.60048828 7.92986328 2.60048828 6.13671875 2.51171875 C2.79900231 2.660191 2.79900231 2.660191 1.08203125 5.51953125 Z M-1 9 C-2.60446277 11.45484118 -2.60446277 11.45484118 -3 15 C-1.78779342 19.0730141 -0.14751415 22.1203594 3 25 C7.12427071 25.85835076 10.85032108 25.60432217 15 25 C15.33 24.01 15.66 23.02 16 22 C14.88625 21.731875 13.7725 21.46375 12.625 21.1875 C9 20 9 20 7 17 C3.43230448 16.26393501 3.43230448 16.26393501 0 16 C0 13.69 0 11.38 0 9 C-0.33 9 -0.66 9 -1 9 Z M4 11 C4 11.66 4 12.32 4 13 C4.99 13 5.98 13 7 13 C7 12.34 7 11.68 7 11 C6.01 11 5.02 11 4 11 Z M12 15 C12 15.99 12 16.98 12 18 C12.66 18 13.32 18 14 18 C14 17.01 14 16.02 14 15 C13.34 15 12.68 15 12 15 Z " fill="#E54E51" transform="translate(7,2)"/>
<path d="M0 0 C3.93141634 1.96570817 5.39860625 7.08017051 7 11 C7.375 14.1875 7.375 14.1875 7 17 C6.7525 18.918125 6.7525 18.918125 6.5 20.875 C6.335 21.90625 6.17 22.9375 6 24 C4.68 24 3.36 24 2 24 C2 24.99 2 25.98 2 27 C-0.88415883 28.44207941 -3.41721528 28.09394887 -6.625 28.0625 C-7.81351563 28.05347656 -9.00203125 28.04445313 -10.2265625 28.03515625 C-11.14179688 28.02355469 -12.05703125 28.01195313 -13 28 C-12.505 26.515 -12.505 26.515 -12 25 C-10.93458984 24.92652344 -10.93458984 24.92652344 -9.84765625 24.8515625 C-8.92855469 24.77679687 -8.00945313 24.70203125 -7.0625 24.625 C-5.68771484 24.52058594 -5.68771484 24.52058594 -4.28515625 24.4140625 C-3.53105469 24.27742188 -2.77695312 24.14078125 -2 24 C-1.67 23.34 -1.34 22.68 -1 22 C-1.94875 22.04125 -2.8975 22.0825 -3.875 22.125 C-7 22 -7 22 -9 20 C-9 19.01 -9 18.02 -9 17 C-8.34 17 -7.68 17 -7 17 C-6.67 17.66 -6.34 18.32 -6 19 C-4.35 18.67 -2.7 18.34 -1 18 C-1.33 16.68 -1.66 15.36 -2 14 C-4.64 14 -7.28 14 -10 14 C-8.13758747 11.5167833 -7.18111649 11.03082834 -4.0625 10.5 C-1 11 -1 11 1.375 13.5 C1.91125 14.325 2.4475 15.15 3 16 C2.54930359 11.66448581 2.54930359 11.66448581 0.375 8 C-1 6 -1 6 -0.6875 2.75 C-0.460625 1.8425 -0.23375 0.935 0 0 Z " fill="#7A29D5" transform="translate(24,2)"/>
<path d="M0 0 C2.9375 0.9375 2.9375 0.9375 4.3125 3 C4.51875 3.639375 4.725 4.27875 4.9375 4.9375 C3.6175 6.2575 2.2975 7.5775 0.9375 8.9375 C1.68 8.586875 2.4225 8.23625 3.1875 7.875 C6.0697726 6.89240707 7.14926345 6.9048198 9.9375 7.9375 C10.5625 9.8125 10.5625 9.8125 10.9375 11.9375 C10.2775 12.5975 9.6175 13.2575 8.9375 13.9375 C6.3125 13.5625 6.3125 13.5625 3.9375 12.9375 C3.9375 12.2775 3.9375 11.6175 3.9375 10.9375 C2.844375 11.14375 1.75125 11.35 0.625 11.5625 C-3.0625 11.9375 -3.0625 11.9375 -6.0625 9.9375 C-6.43900785 6.48617807 -6.66908065 4.01586561 -4.9375 0.9375 C-3.0625 -0.0625 -3.0625 -0.0625 0 0 Z M-2.0625 4.9375 C-2.0625 5.5975 -2.0625 6.2575 -2.0625 6.9375 C-1.0725 6.9375 -0.0825 6.9375 0.9375 6.9375 C0.9375 6.2775 0.9375 5.6175 0.9375 4.9375 C-0.0525 4.9375 -1.0425 4.9375 -2.0625 4.9375 Z M5.9375 8.9375 C5.9375 9.9275 5.9375 10.9175 5.9375 11.9375 C6.5975 11.9375 7.2575 11.9375 7.9375 11.9375 C7.9375 10.9475 7.9375 9.9575 7.9375 8.9375 C7.2775 8.9375 6.6175 8.9375 5.9375 8.9375 Z " fill="#75C192" transform="translate(13.0625,8.0625)"/>
<path d="M0 0 C3.93141634 1.96570817 5.39860625 7.08017051 7 11 C7.375 14.1875 7.375 14.1875 7 17 C6.7525 18.918125 6.7525 18.918125 6.5 20.875 C6.335 21.90625 6.17 22.9375 6 24 C4.68 23.67 3.36 23.34 2 23 C2.66 23 3.32 23 4 23 C4 21.68 4 20.36 4 19 C3.34 18.67 2.68 18.34 2 18 C2.2475 17.13375 2.495 16.2675 2.75 15.375 C3.35726507 11.87002722 3.35726507 11.87002722 1 9 C-1 6 -1 6 -0.75 2.625 C-0.5025 1.75875 -0.255 0.8925 0 0 Z " fill="#6721D3" transform="translate(24,2)"/>
<path d="M0 0 C3 0.375 3 0.375 4.8125 1.625 C6.21003941 3.68453176 6.92394687 4.86524675 7 7.375 C5.4375 9.625 5.4375 9.625 3 11.375 C-0.125 11.75 -0.125 11.75 -3 11.375 C-3.66 10.715 -4.32 10.055 -5 9.375 C-5 8.385 -5 7.395 -5 6.375 C-4.34 6.375 -3.68 6.375 -3 6.375 C-2.67 7.035 -2.34 7.695 -2 8.375 C-0.35 8.045 1.3 7.715 3 7.375 C2.67 6.055 2.34 4.735 2 3.375 C-0.64 3.375 -3.28 3.375 -6 3.375 C-4.09456498 0.83441997 -3.22246552 0.40280819 0 0 Z " fill="#612CD6" transform="translate(20,12.625)"/>
<path d="M0 0 C5.61 0 11.22 0 17 0 C16.67 0.99 16.34 1.98 16 3 C14.62714844 3.07347656 14.62714844 3.07347656 13.2265625 3.1484375 C12.03804687 3.22320312 10.84953125 3.29796875 9.625 3.375 C7.84996094 3.47941406 7.84996094 3.47941406 6.0390625 3.5859375 C2.89437681 3.70217346 2.89437681 3.70217346 1 6 C0.67 4.02 0.34 2.04 0 0 Z " fill="#E54E62" transform="translate(7,2)"/>
<path d="M0 0 C2.99977878 1.49988939 3.55588143 4.05159126 5 7 C5.66 7.66 6.32 8.32 7 9 C6.67 9.66 6.34 10.32 6 11 C4.171875 10.78515625 4.171875 10.78515625 2 10 C0.515625 7.93359375 0.515625 7.93359375 -0.75 5.4375 C-1.17796875 4.61121094 -1.6059375 3.78492188 -2.046875 2.93359375 C-2.36140625 2.29550781 -2.6759375 1.65742188 -3 1 C-2.01 0.67 -1.02 0.34 0 0 Z " fill="#C74172" transform="translate(5,19)"/>
<path d="M0 0 C2.53833449 1.26916725 2.89400901 2.41624809 4.125 4.9375 C4.47820313 5.64777344 4.83140625 6.35804687 5.1953125 7.08984375 C6 9 6 9 6 11 C5.01 11.33 4.02 11.66 3 12 C-1.06153846 6.83076923 -1.06153846 6.83076923 -0.75 2.625 C-0.5025 1.75875 -0.255 0.8925 0 0 Z " fill="#9530AE" transform="translate(24,2)"/>
<path d="M0 0 C1.32 0.33 2.64 0.66 4 1 C4.625 2.875 4.625 2.875 5 5 C4.34 5.66 3.68 6.32 3 7 C0.375 6.625 0.375 6.625 -2 6 C-2 5.01 -2 4.02 -2 3 C-1.34 3 -0.68 3 0 3 C0 3.66 0 4.32 0 5 C0.66 5 1.32 5 2 5 C2 4.01 2 3.02 2 2 C1.34 2 0.68 2 0 2 C0 1.34 0 0.68 0 0 Z " fill="#CF5A3D" transform="translate(19,15)"/>
<path d="M0 0 C1.65 0.33 3.3 0.66 5 1 C5 4 5 4 4 6 C2.35 5.67 0.7 5.34 -1 5 C-0.67 3.35 -0.34 1.7 0 0 Z M1 2 C1 2.66 1 3.32 1 4 C1.99 4 2.98 4 4 4 C4 3.34 4 2.68 4 2 C3.01 2 2.02 2 1 2 Z " fill="#D25056" transform="translate(10,11)"/>
<path d="M0 0 C2.31 0 4.62 0 7 0 C6.67 0.99 6.34 1.98 6 3 C3.69 3 1.38 3 -1 3 C-0.67 2.01 -0.34 1.02 0 0 Z " fill="#C4448E" transform="translate(17,2)"/>
<path d="M0 0 C1.98 0 3.96 0 6 0 C6 0.66 6 1.32 6 2 C3.69 2.33 1.38 2.66 -1 3 C-0.67 2.01 -0.34 1.02 0 0 Z " fill="#A037B5" transform="translate(12,27)"/>
<path d="M0 0 C0.99 0 1.98 0 3 0 C3 1.98 3 3.96 3 6 C2.01 6 1.02 6 0 6 C0 4.02 0 2.04 0 0 Z " fill="#7929D8" transform="translate(28,13)"/>
<path d="M0 0 C1.65 0 3.3 0 5 0 C5.66 1.32 6.32 2.64 7 4 C3.89448334 4 2.64738916 3.4606285 0 2 C0 1.34 0 0.68 0 0 Z " fill="#6AB583" transform="translate(11,9)"/>
<path d="M0 0 C1.32 1.32 2.64 2.64 4 4 C3.67 4.66 3.34 5.32 3 6 C1.68 5.67 0.36 5.34 -1 5 C-0.67 3.35 -0.34 1.7 0 0 Z " fill="#B43D95" transform="translate(8,24)"/>
<path d="M0 0 C0.68707555 2.49064888 1 4.37886292 1 7 C-0.32 6.67 -1.64 6.34 -3 6 C-1.125 1.125 -1.125 1.125 0 0 Z " fill="#E04A5B" transform="translate(4,13)"/>
</svg>
