<?xml version="1.0" encoding="UTF-8"?>
<svg version="1.1" xmlns="http://www.w3.org/2000/svg" width="32" height="32">
<path d="M0 0 C10.56 0 21.12 0 32 0 C32 10.56 32 21.12 32 32 C21.44 32 10.88 32 0 32 C0 21.44 0 10.88 0 0 Z " fill="#021192" transform="translate(0,0)"/>
<path d="M0 0 C6.93 0 13.86 0 21 0 C21 2.97 21 5.94 21 9 C20.01 9 19.02 9 18 9 C18 7.02 18 5.04 18 3 C17.01 3 16.02 3 15 3 C15 4.98 15 6.96 15 9 C14.34 9 13.68 9 13 9 C13 7.68 13 6.36 13 5 C12.34 5 11.68 5 11 5 C11 6.32 11 7.64 11 9 C7.37 9.33 3.74 9.66 0 10 C0 6.7 0 3.4 0 0 Z " fill="#EEF2F9" transform="translate(0,0)"/>
<path d="M0 0 C5.625 5.625 5.625 5.625 6 9 C6.66 9 7.32 9 8 9 C9.5078125 10.93359375 9.5078125 10.93359375 11.125 13.4375 C11.66382813 14.26121094 12.20265625 15.08492187 12.7578125 15.93359375 C14 18 14 18 14 19 C9.38 19 4.76 19 0 19 C0 12.73 0 6.46 0 0 Z " fill="#5EC4D0" transform="translate(0,13)"/>
<path d="M0 0 C0.33 0 0.66 0 1 0 C1 6.27 1 12.54 1 19 C-2.96 19 -6.92 19 -11 19 C-9.73336157 16.58105155 -8.46188664 14.16486225 -7.1875 11.75 C-6.83107422 11.06808594 -6.47464844 10.38617188 -6.10742188 9.68359375 C-4.29576178 6.25972238 -2.53736207 2.9564459 0 0 Z " fill="#60C5D0" transform="translate(31,13)"/>
<path d="M0 0 C3.3 0 6.6 0 10 0 C10.3696 6.5296 10.3696 6.5296 8.625 8.75 C8.08875 9.1625 7.5525 9.575 7 10 C6.01 11.485 6.01 11.485 5 13 C3.96387729 11.59447701 2.94655075 10.17508306 1.9375 8.75 C1.36902344 7.96109375 0.80054687 7.1721875 0.21484375 6.359375 C-1 4 -1 4 0 0 Z " fill="#0793D7" transform="translate(1,9)"/>
<path d="M0 0 C2.97 0 5.94 0 9 0 C9 3.3 9 6.6 9 10 C6.03 9.67 3.06 9.34 0 9 C0 6.03 0 3.06 0 0 Z " fill="#EEF1F9" transform="translate(23,0)"/>
<path d="M0 0 C0.33 0 0.66 0 1 0 C1 4.95 1 9.9 1 15 C-4 10 -4 10 -5 7 C-4.0390625 5.17578125 -4.0390625 5.17578125 -2.625 3.3125 C-2.16351562 2.68988281 -1.70203125 2.06726563 -1.2265625 1.42578125 C-0.82179688 0.95527344 -0.41703125 0.48476562 0 0 Z " fill="#F5F8FB" transform="translate(31,13)"/>
<path d="M0 0 C5 5 5 5 6.125 6.9375 C5.90678884 10.5379842 3.42855133 12.45580337 1 15 C0.67 15 0.34 15 0 15 C0 10.05 0 5.1 0 0 Z " fill="#F7FCFD" transform="translate(0,13)"/>
<path d="M0 0 C0.33 0 0.66 0 1 0 C1 4.95 1 9.9 1 15 C0.01 15.33 -0.98 15.66 -2 16 C-2 12.7 -2 9.4 -2 6 C-1.34 6 -0.68 6 0 6 C0 4.02 0 2.04 0 0 Z " fill="#4798C5" transform="translate(15,3)"/>
<path d="M0 0 C0 3.99904969 -1.72586967 5.80200422 -4 9 C-4.99 8.67 -5.98 8.34 -7 8 C-4.69 5.36 -2.38 2.72 0 0 Z " fill="#2E409F" transform="translate(24,23)"/>
<path d="M0 0 C0.99 0 1.98 0 3 0 C3.1875 2.375 3.1875 2.375 3 5 C2.01 5.66 1.02 6.32 0 7 C0 4.69 0 2.38 0 0 Z " fill="#2098CD" transform="translate(18,9)"/>
</svg>
